<mxfile host="app.diagrams.net" modified="2021-05-17T08:46:11.664Z" agent="5.0 (X11)" etag="8l7VchUs6h7GkueUa0WU" version="14.6.13" type="github">
  <diagram id="LB5ANaDwlQLxn0U3q3Hp" name="Page-1">
    <mxGraphModel dx="1350" dy="804" grid="1" gridSize="10" guides="1" tooltips="1" connect="1" arrows="1" fold="1" page="1" pageScale="1" pageWidth="827" pageHeight="1169" math="0" shadow="0">
      <root>
        <mxCell id="0" />
        <mxCell id="1" parent="0" />
        <mxCell id="4IkOBofehqa5BJYoAM2C-1" value="IDLE" style="ellipse;whiteSpace=wrap;html=1;aspect=fixed;rounded=0;sketch=0;" vertex="1" parent="1">
          <mxGeometry x="374" y="130" width="80" height="80" as="geometry" />
        </mxCell>
        <mxCell id="4IkOBofehqa5BJYoAM2C-2" value="DOWN" style="ellipse;whiteSpace=wrap;html=1;aspect=fixed;rounded=0;sketch=0;" vertex="1" parent="1">
          <mxGeometry x="520" y="220" width="80" height="80" as="geometry" />
        </mxCell>
        <mxCell id="4IkOBofehqa5BJYoAM2C-4" value="" style="curved=1;endArrow=classic;html=1;exitX=1.038;exitY=0.413;exitDx=0;exitDy=0;exitPerimeter=0;entryX=0.5;entryY=0;entryDx=0;entryDy=0;" edge="1" parent="1" source="4IkOBofehqa5BJYoAM2C-1" target="4IkOBofehqa5BJYoAM2C-2">
          <mxGeometry width="50" height="50" relative="1" as="geometry">
            <mxPoint x="340" y="410" as="sourcePoint" />
            <mxPoint x="390" y="360" as="targetPoint" />
            <Array as="points">
              <mxPoint x="510" y="140" />
              <mxPoint x="550" y="160" />
            </Array>
          </mxGeometry>
        </mxCell>
        <mxCell id="4IkOBofehqa5BJYoAM2C-5" value="付费成功" style="text;html=1;align=center;verticalAlign=middle;resizable=0;points=[];autosize=1;strokeColor=none;" vertex="1" parent="1">
          <mxGeometry x="550" y="140" width="60" height="20" as="geometry" />
        </mxCell>
        <mxCell id="4IkOBofehqa5BJYoAM2C-7" style="edgeStyle=orthogonalEdgeStyle;curved=0;rounded=1;sketch=0;orthogonalLoop=1;jettySize=auto;html=1;entryX=0;entryY=0.5;entryDx=0;entryDy=0;" edge="1" parent="1" source="4IkOBofehqa5BJYoAM2C-1" target="4IkOBofehqa5BJYoAM2C-1">
          <mxGeometry relative="1" as="geometry">
            <Array as="points">
              <mxPoint x="414" y="120" />
              <mxPoint x="360" y="120" />
              <mxPoint x="360" y="170" />
            </Array>
          </mxGeometry>
        </mxCell>
        <mxCell id="4IkOBofehqa5BJYoAM2C-8" value="WAIT" style="ellipse;whiteSpace=wrap;html=1;aspect=fixed;rounded=0;sketch=0;" vertex="1" parent="1">
          <mxGeometry x="440" y="330" width="80" height="80" as="geometry" />
        </mxCell>
        <mxCell id="4IkOBofehqa5BJYoAM2C-10" value="" style="curved=1;endArrow=classic;html=1;exitX=0.5;exitY=1;exitDx=0;exitDy=0;entryX=1.038;entryY=0.613;entryDx=0;entryDy=0;entryPerimeter=0;" edge="1" parent="1" source="4IkOBofehqa5BJYoAM2C-2" target="4IkOBofehqa5BJYoAM2C-8">
          <mxGeometry width="50" height="50" relative="1" as="geometry">
            <mxPoint x="360" y="400" as="sourcePoint" />
            <mxPoint x="410" y="350" as="targetPoint" />
            <Array as="points">
              <mxPoint x="640" y="320" />
              <mxPoint x="540" y="390" />
            </Array>
          </mxGeometry>
        </mxCell>
        <mxCell id="4IkOBofehqa5BJYoAM2C-11" value="UP" style="ellipse;whiteSpace=wrap;html=1;aspect=fixed;rounded=0;sketch=0;" vertex="1" parent="1">
          <mxGeometry x="280" y="330" width="80" height="80" as="geometry" />
        </mxCell>
        <mxCell id="4IkOBofehqa5BJYoAM2C-12" value="RE" style="ellipse;whiteSpace=wrap;html=1;aspect=fixed;rounded=0;sketch=0;" vertex="1" parent="1">
          <mxGeometry x="230" y="220" width="80" height="80" as="geometry" />
        </mxCell>
        <mxCell id="4IkOBofehqa5BJYoAM2C-13" value="" style="curved=1;endArrow=classic;html=1;exitX=0.5;exitY=1;exitDx=0;exitDy=0;entryX=0.5;entryY=1;entryDx=0;entryDy=0;" edge="1" parent="1" source="4IkOBofehqa5BJYoAM2C-8" target="4IkOBofehqa5BJYoAM2C-11">
          <mxGeometry width="50" height="50" relative="1" as="geometry">
            <mxPoint x="340" y="410" as="sourcePoint" />
            <mxPoint x="390" y="360" as="targetPoint" />
            <Array as="points">
              <mxPoint x="400" y="460" />
            </Array>
          </mxGeometry>
        </mxCell>
        <mxCell id="4IkOBofehqa5BJYoAM2C-15" value="" style="endArrow=classic;html=1;exitX=0;exitY=0;exitDx=0;exitDy=0;entryX=0.5;entryY=1;entryDx=0;entryDy=0;" edge="1" parent="1" source="4IkOBofehqa5BJYoAM2C-11" target="4IkOBofehqa5BJYoAM2C-12">
          <mxGeometry width="50" height="50" relative="1" as="geometry">
            <mxPoint x="340" y="410" as="sourcePoint" />
            <mxPoint x="390" y="360" as="targetPoint" />
            <Array as="points">
              <mxPoint x="260" y="330" />
            </Array>
          </mxGeometry>
        </mxCell>
        <mxCell id="4IkOBofehqa5BJYoAM2C-16" value="" style="endArrow=classic;html=1;exitX=0.838;exitY=0.063;exitDx=0;exitDy=0;exitPerimeter=0;entryX=0.05;entryY=0.763;entryDx=0;entryDy=0;entryPerimeter=0;" edge="1" parent="1" source="4IkOBofehqa5BJYoAM2C-12" target="4IkOBofehqa5BJYoAM2C-1">
          <mxGeometry width="50" height="50" relative="1" as="geometry">
            <mxPoint x="340" y="410" as="sourcePoint" />
            <mxPoint x="370" y="190" as="targetPoint" />
            <Array as="points">
              <mxPoint x="297" y="190" />
              <mxPoint x="320" y="170" />
            </Array>
          </mxGeometry>
        </mxCell>
        <mxCell id="4IkOBofehqa5BJYoAM2C-17" value="前传感器探测到车辆" style="text;html=1;align=center;verticalAlign=middle;resizable=0;points=[];autosize=1;strokeColor=none;" vertex="1" parent="1">
          <mxGeometry x="340" y="450" width="120" height="20" as="geometry" />
        </mxCell>
        <mxCell id="4IkOBofehqa5BJYoAM2C-18" value="&lt;div&gt;前传感器&lt;/div&gt;&lt;div&gt;未探测到车辆&lt;/div&gt;" style="text;html=1;align=center;verticalAlign=middle;resizable=0;points=[];autosize=1;strokeColor=none;rotation=0;" vertex="1" parent="1">
          <mxGeometry x="220" y="155" width="90" height="30" as="geometry" />
        </mxCell>
        <mxCell id="4IkOBofehqa5BJYoAM2C-19" value="IDLE" style="ellipse;whiteSpace=wrap;html=1;aspect=fixed;rounded=0;sketch=0;" vertex="1" parent="1">
          <mxGeometry x="364" y="555" width="80" height="80" as="geometry" />
        </mxCell>
        <mxCell id="4IkOBofehqa5BJYoAM2C-20" value="DOWN" style="ellipse;whiteSpace=wrap;html=1;aspect=fixed;rounded=0;sketch=0;" vertex="1" parent="1">
          <mxGeometry x="500" y="650" width="80" height="80" as="geometry" />
        </mxCell>
        <mxCell id="4IkOBofehqa5BJYoAM2C-21" value="" style="curved=1;endArrow=classic;html=1;exitX=1.038;exitY=0.413;exitDx=0;exitDy=0;exitPerimeter=0;entryX=0.5;entryY=0;entryDx=0;entryDy=0;" edge="1" source="4IkOBofehqa5BJYoAM2C-19" target="4IkOBofehqa5BJYoAM2C-20" parent="1">
          <mxGeometry width="50" height="50" relative="1" as="geometry">
            <mxPoint x="320" y="840" as="sourcePoint" />
            <mxPoint x="370" y="790" as="targetPoint" />
            <Array as="points">
              <mxPoint x="490" y="570" />
              <mxPoint x="530" y="590" />
            </Array>
          </mxGeometry>
        </mxCell>
        <mxCell id="4IkOBofehqa5BJYoAM2C-23" style="edgeStyle=orthogonalEdgeStyle;curved=0;rounded=1;sketch=0;orthogonalLoop=1;jettySize=auto;html=1;entryX=0;entryY=0.5;entryDx=0;entryDy=0;" edge="1" source="4IkOBofehqa5BJYoAM2C-19" target="4IkOBofehqa5BJYoAM2C-19" parent="1">
          <mxGeometry relative="1" as="geometry">
            <Array as="points">
              <mxPoint x="394" y="550" />
              <mxPoint x="340" y="550" />
              <mxPoint x="340" y="600" />
            </Array>
          </mxGeometry>
        </mxCell>
        <mxCell id="4IkOBofehqa5BJYoAM2C-24" value="WAIT" style="ellipse;whiteSpace=wrap;html=1;aspect=fixed;rounded=0;sketch=0;" vertex="1" parent="1">
          <mxGeometry x="390" y="770" width="80" height="80" as="geometry" />
        </mxCell>
        <mxCell id="4IkOBofehqa5BJYoAM2C-25" value="" style="curved=1;endArrow=classic;html=1;exitX=0.5;exitY=1;exitDx=0;exitDy=0;entryX=1.038;entryY=0.613;entryDx=0;entryDy=0;entryPerimeter=0;" edge="1" source="4IkOBofehqa5BJYoAM2C-20" target="4IkOBofehqa5BJYoAM2C-24" parent="1">
          <mxGeometry width="50" height="50" relative="1" as="geometry">
            <mxPoint x="340" y="830" as="sourcePoint" />
            <mxPoint x="390" y="780" as="targetPoint" />
            <Array as="points">
              <mxPoint x="620" y="750" />
              <mxPoint x="520" y="820" />
            </Array>
          </mxGeometry>
        </mxCell>
        <mxCell id="4IkOBofehqa5BJYoAM2C-26" value="UP" style="ellipse;whiteSpace=wrap;html=1;aspect=fixed;rounded=0;sketch=0;" vertex="1" parent="1">
          <mxGeometry x="274" y="670" width="80" height="80" as="geometry" />
        </mxCell>
        <mxCell id="4IkOBofehqa5BJYoAM2C-28" value="" style="curved=1;endArrow=classic;html=1;exitX=0.5;exitY=1;exitDx=0;exitDy=0;entryX=0.5;entryY=1;entryDx=0;entryDy=0;" edge="1" source="4IkOBofehqa5BJYoAM2C-24" target="4IkOBofehqa5BJYoAM2C-26" parent="1">
          <mxGeometry width="50" height="50" relative="1" as="geometry">
            <mxPoint x="320" y="840" as="sourcePoint" />
            <mxPoint x="370" y="790" as="targetPoint" />
            <Array as="points">
              <mxPoint x="370" y="850" />
              <mxPoint x="330" y="830" />
            </Array>
          </mxGeometry>
        </mxCell>
        <mxCell id="4IkOBofehqa5BJYoAM2C-29" value="" style="endArrow=classic;html=1;exitX=0;exitY=0;exitDx=0;exitDy=0;entryX=0.063;entryY=0.738;entryDx=0;entryDy=0;entryPerimeter=0;" edge="1" source="4IkOBofehqa5BJYoAM2C-26" target="4IkOBofehqa5BJYoAM2C-19" parent="1">
          <mxGeometry width="50" height="50" relative="1" as="geometry">
            <mxPoint x="334" y="750" as="sourcePoint" />
            <mxPoint x="264" y="640" as="targetPoint" />
            <Array as="points">
              <mxPoint x="286" y="619" />
            </Array>
          </mxGeometry>
        </mxCell>
        <mxCell id="4IkOBofehqa5BJYoAM2C-31" value="&lt;div&gt;前传感器&lt;/div&gt;&lt;div&gt;探测到车辆&lt;/div&gt;" style="text;html=1;align=center;verticalAlign=middle;resizable=0;points=[];autosize=1;strokeColor=none;" vertex="1" parent="1">
          <mxGeometry x="530" y="580" width="80" height="30" as="geometry" />
        </mxCell>
        <mxCell id="4IkOBofehqa5BJYoAM2C-32" value="&lt;div&gt;后传感器&lt;/div&gt;&lt;div&gt;探测到车辆&lt;/div&gt;" style="text;html=1;align=center;verticalAlign=middle;resizable=0;points=[];autosize=1;strokeColor=none;rotation=0;" vertex="1" parent="1">
          <mxGeometry x="260" y="810" width="80" height="30" as="geometry" />
        </mxCell>
      </root>
    </mxGraphModel>
  </diagram>
</mxfile>
